<mxfile host="Electron" modified="2024-05-10T07:58:38.496Z" agent="Mozilla/5.0 (Macintosh; Intel Mac OS X 10_15_7) AppleWebKit/537.36 (KHTML, like Gecko) draw.io/22.1.18 Chrome/120.0.6099.199 Electron/28.1.2 Safari/537.36" etag="TmjPb5TUd_liYSmKyNkl" version="22.1.18" type="device">
  <diagram name="第 1 页" id="9g8P3RWRX6Sg8x3JM8hz">
    <mxGraphModel dx="1012" dy="645" grid="0" gridSize="10" guides="1" tooltips="1" connect="1" arrows="1" fold="1" page="1" pageScale="1" pageWidth="827" pageHeight="1169" math="0" shadow="0">
      <root>
        <mxCell id="0" />
        <mxCell id="1" parent="0" />
        <mxCell id="vd2-MDgw4LqcnlgiZA0H-58" value="" style="rounded=0;whiteSpace=wrap;html=1;strokeColor=none;fillColor=none;fontStyle=1;fontFamily=Helvetica;" parent="1" vertex="1">
          <mxGeometry x="14" y="27" width="807" height="451" as="geometry" />
        </mxCell>
        <mxCell id="vd2-MDgw4LqcnlgiZA0H-1" value="&lt;font style=&quot;&quot;&gt;This is an Apple.&lt;/font&gt;&lt;div&gt;&lt;font style=&quot;&quot;&gt;&lt;br&gt;&lt;/font&gt;&lt;/div&gt;&lt;div&gt;&lt;font&gt;Apple is red in color.&lt;/font&gt;&lt;/div&gt;" style="whiteSpace=wrap;html=1;aspect=fixed;fillColor=#f5f5f5;strokeColor=#666666;fontColor=#333333;fontStyle=1;fontFamily=Helvetica;" parent="1" vertex="1">
          <mxGeometry x="22" y="182" width="117" height="117" as="geometry" />
        </mxCell>
        <mxCell id="vd2-MDgw4LqcnlgiZA0H-2" value="" style="endArrow=classic;html=1;rounded=0;fontStyle=1;fontFamily=Helvetica;" parent="1" edge="1">
          <mxGeometry width="50" height="50" relative="1" as="geometry">
            <mxPoint x="141" y="222" as="sourcePoint" />
            <mxPoint x="191" y="172" as="targetPoint" />
          </mxGeometry>
        </mxCell>
        <mxCell id="vd2-MDgw4LqcnlgiZA0H-3" value="" style="endArrow=classic;html=1;rounded=0;fontStyle=1;fontFamily=Helvetica;exitX=1.012;exitY=0.599;exitDx=0;exitDy=0;exitPerimeter=0;entryX=0;entryY=0.5;entryDx=0;entryDy=0;" parent="1" source="vd2-MDgw4LqcnlgiZA0H-1" target="vd2-MDgw4LqcnlgiZA0H-5" edge="1">
          <mxGeometry width="50" height="50" relative="1" as="geometry">
            <mxPoint x="143" y="248" as="sourcePoint" />
            <mxPoint x="189" y="293" as="targetPoint" />
          </mxGeometry>
        </mxCell>
        <mxCell id="vd2-MDgw4LqcnlgiZA0H-4" value="&lt;font&gt;This is an Apple&lt;/font&gt;" style="rounded=0;whiteSpace=wrap;html=1;strokeColor=#d6b656;fillColor=#fff2cc;fontStyle=1;fontFamily=Helvetica;" parent="1" vertex="1">
          <mxGeometry x="195" y="142" width="74" height="48" as="geometry" />
        </mxCell>
        <mxCell id="vd2-MDgw4LqcnlgiZA0H-5" value="&lt;font&gt;Apple is&amp;nbsp;&lt;/font&gt;&lt;div&gt;&lt;font&gt;red in&amp;nbsp;&lt;/font&gt;&lt;/div&gt;&lt;div&gt;&lt;font&gt;color&lt;/font&gt;&lt;/div&gt;" style="rounded=0;whiteSpace=wrap;html=1;strokeColor=#d6b656;fillColor=#fff2cc;fontStyle=1;fontFamily=Helvetica;" parent="1" vertex="1">
          <mxGeometry x="195" y="270" width="74" height="55" as="geometry" />
        </mxCell>
        <mxCell id="vd2-MDgw4LqcnlgiZA0H-7" value="" style="endArrow=classic;html=1;rounded=0;fontStyle=1;fontFamily=Helvetica;exitX=1;exitY=0.5;exitDx=0;exitDy=0;entryX=0;entryY=0.5;entryDx=0;entryDy=0;" parent="1" source="vd2-MDgw4LqcnlgiZA0H-4" target="vd2-MDgw4LqcnlgiZA0H-12" edge="1">
          <mxGeometry width="50" height="50" relative="1" as="geometry">
            <mxPoint x="271" y="164" as="sourcePoint" />
            <mxPoint x="321" y="114" as="targetPoint" />
          </mxGeometry>
        </mxCell>
        <mxCell id="vd2-MDgw4LqcnlgiZA0H-8" value="" style="endArrow=classic;html=1;rounded=0;fontStyle=1;fontFamily=Helvetica;exitX=1;exitY=0.5;exitDx=0;exitDy=0;entryX=0;entryY=0.5;entryDx=0;entryDy=0;" parent="1" source="vd2-MDgw4LqcnlgiZA0H-5" target="vd2-MDgw4LqcnlgiZA0H-13" edge="1">
          <mxGeometry width="50" height="50" relative="1" as="geometry">
            <mxPoint x="271.5" y="298" as="sourcePoint" />
            <mxPoint x="317.5" y="343" as="targetPoint" />
          </mxGeometry>
        </mxCell>
        <mxCell id="vd2-MDgw4LqcnlgiZA0H-9" value="Input" style="text;html=1;align=center;verticalAlign=middle;whiteSpace=wrap;rounded=0;fontStyle=1;fontFamily=Helvetica;fontSize=16;" parent="1" vertex="1">
          <mxGeometry x="50.5" y="151" width="60" height="30" as="geometry" />
        </mxCell>
        <mxCell id="vd2-MDgw4LqcnlgiZA0H-10" value="Split" style="text;html=1;align=center;verticalAlign=middle;whiteSpace=wrap;rounded=0;fontFamily=Helvetica;fontStyle=1;fontSize=16;" parent="1" vertex="1">
          <mxGeometry x="188" y="112" width="88" height="30" as="geometry" />
        </mxCell>
        <mxCell id="vd2-MDgw4LqcnlgiZA0H-11" value="Map" style="text;html=1;align=center;verticalAlign=middle;whiteSpace=wrap;rounded=0;fontFamily=Helvetica;fontStyle=1;fontSize=16;" parent="1" vertex="1">
          <mxGeometry x="316.5" y="39" width="88" height="30" as="geometry" />
        </mxCell>
        <mxCell id="vd2-MDgw4LqcnlgiZA0H-12" value="&lt;font&gt;This-1&lt;/font&gt;&lt;div&gt;&lt;font&gt;&lt;br&gt;&lt;/font&gt;&lt;div&gt;&lt;font&gt;Is-1&lt;/font&gt;&lt;/div&gt;&lt;div&gt;&lt;font&gt;&lt;br&gt;&lt;/font&gt;&lt;/div&gt;&lt;div&gt;&lt;font&gt;An-1&lt;/font&gt;&lt;/div&gt;&lt;div&gt;&lt;font&gt;&lt;br&gt;&lt;/font&gt;&lt;/div&gt;&lt;div&gt;&lt;font&gt;Apple-1&lt;/font&gt;&lt;/div&gt;&lt;/div&gt;" style="rounded=0;whiteSpace=wrap;html=1;fillColor=#f5f5f5;strokeColor=#666666;fontColor=#333333;fontStyle=1;fontFamily=Helvetica;" parent="1" vertex="1">
          <mxGeometry x="325" y="69" width="71" height="136" as="geometry" />
        </mxCell>
        <mxCell id="vd2-MDgw4LqcnlgiZA0H-13" value="&lt;font&gt;Apple-1&lt;/font&gt;&lt;div&gt;&lt;font&gt;&lt;br&gt;&lt;/font&gt;&lt;div&gt;&lt;font&gt;Is-1&lt;/font&gt;&lt;/div&gt;&lt;div&gt;&lt;font&gt;&lt;br&gt;&lt;/font&gt;&lt;/div&gt;&lt;div&gt;&lt;font&gt;Red-1&lt;/font&gt;&lt;/div&gt;&lt;div&gt;&lt;font&gt;&lt;br&gt;&lt;/font&gt;&lt;/div&gt;&lt;div&gt;&lt;font&gt;In-1&lt;/font&gt;&lt;/div&gt;&lt;/div&gt;&lt;div&gt;&lt;font&gt;&lt;br&gt;&lt;/font&gt;&lt;/div&gt;&lt;div&gt;&lt;font&gt;Color-1&lt;/font&gt;&lt;/div&gt;" style="rounded=0;whiteSpace=wrap;html=1;fillColor=#f5f5f5;strokeColor=#666666;fontColor=#333333;fontStyle=1;fontFamily=Helvetica;" parent="1" vertex="1">
          <mxGeometry x="325" y="280" width="71" height="163" as="geometry" />
        </mxCell>
        <mxCell id="vd2-MDgw4LqcnlgiZA0H-14" value="" style="endArrow=classic;html=1;rounded=0;fontStyle=1;fontFamily=Helvetica;exitX=1.007;exitY=0.177;exitDx=0;exitDy=0;exitPerimeter=0;entryX=0;entryY=0.5;entryDx=0;entryDy=0;" parent="1" source="vd2-MDgw4LqcnlgiZA0H-12" target="vd2-MDgw4LqcnlgiZA0H-16" edge="1">
          <mxGeometry width="50" height="50" relative="1" as="geometry">
            <mxPoint x="398" y="88" as="sourcePoint" />
            <mxPoint x="453" y="71" as="targetPoint" />
          </mxGeometry>
        </mxCell>
        <mxCell id="vd2-MDgw4LqcnlgiZA0H-15" value="Shuffle" style="text;html=1;align=center;verticalAlign=middle;whiteSpace=wrap;rounded=0;fontFamily=Helvetica;fontStyle=1;fontSize=16;" parent="1" vertex="1">
          <mxGeometry x="450" y="25" width="88" height="30" as="geometry" />
        </mxCell>
        <mxCell id="vd2-MDgw4LqcnlgiZA0H-16" value="&lt;font&gt;This-1&lt;/font&gt;" style="rounded=0;whiteSpace=wrap;html=1;strokeColor=#36393d;fillColor=#eeeeee;fontStyle=1;fontFamily=Helvetica;" parent="1" vertex="1">
          <mxGeometry x="454.5" y="55" width="79" height="31" as="geometry" />
        </mxCell>
        <mxCell id="vd2-MDgw4LqcnlgiZA0H-17" value="" style="endArrow=classic;html=1;rounded=0;fontStyle=1;fontFamily=Helvetica;" parent="1" edge="1">
          <mxGeometry width="50" height="50" relative="1" as="geometry">
            <mxPoint x="397" y="119" as="sourcePoint" />
            <mxPoint x="454.5" y="131" as="targetPoint" />
          </mxGeometry>
        </mxCell>
        <mxCell id="vd2-MDgw4LqcnlgiZA0H-18" value="" style="endArrow=classic;html=1;rounded=0;fontStyle=1;fontFamily=Helvetica;" parent="1" edge="1">
          <mxGeometry width="50" height="50" relative="1" as="geometry">
            <mxPoint x="396" y="298" as="sourcePoint" />
            <mxPoint x="449" y="166" as="targetPoint" />
          </mxGeometry>
        </mxCell>
        <mxCell id="vd2-MDgw4LqcnlgiZA0H-19" value="&lt;div&gt;&lt;font&gt;Is-1&lt;/font&gt;&lt;/div&gt;&lt;div&gt;&lt;font&gt;&lt;br&gt;&lt;/font&gt;&lt;/div&gt;&lt;div&gt;&lt;div&gt;&lt;font&gt;Is-1&lt;/font&gt;&lt;/div&gt;&lt;/div&gt;" style="rounded=0;whiteSpace=wrap;html=1;strokeColor=#36393d;fillColor=#eeeeee;fontStyle=1;fontFamily=Helvetica;" parent="1" vertex="1">
          <mxGeometry x="454.5" y="110" width="79" height="66" as="geometry" />
        </mxCell>
        <mxCell id="vd2-MDgw4LqcnlgiZA0H-20" value="&lt;font&gt;An-1&lt;/font&gt;" style="rounded=0;whiteSpace=wrap;html=1;strokeColor=#36393d;fillColor=#eeeeee;fontStyle=1;fontFamily=Helvetica;" parent="1" vertex="1">
          <mxGeometry x="454.5" y="197" width="79" height="31" as="geometry" />
        </mxCell>
        <mxCell id="vd2-MDgw4LqcnlgiZA0H-21" value="" style="endArrow=classic;html=1;rounded=0;fontStyle=1;fontFamily=Helvetica;" parent="1" edge="1">
          <mxGeometry width="50" height="50" relative="1" as="geometry">
            <mxPoint x="397.5" y="153" as="sourcePoint" />
            <mxPoint x="451" y="212" as="targetPoint" />
          </mxGeometry>
        </mxCell>
        <mxCell id="vd2-MDgw4LqcnlgiZA0H-23" value="&lt;div&gt;&lt;span style=&quot;background-color: initial;&quot;&gt;Apple-&lt;/span&gt;&lt;span style=&quot;background-color: initial;&quot;&gt;1&lt;/span&gt;&lt;/div&gt;&lt;div&gt;&lt;font&gt;&lt;br&gt;&lt;/font&gt;&lt;/div&gt;&lt;div&gt;&lt;div&gt;&lt;span style=&quot;background-color: initial;&quot;&gt;Apple-&lt;/span&gt;&lt;font&gt;1&lt;/font&gt;&lt;/div&gt;&lt;/div&gt;" style="rounded=0;whiteSpace=wrap;html=1;strokeColor=#36393d;fillColor=#eeeeee;fontStyle=1;fontFamily=Helvetica;" parent="1" vertex="1">
          <mxGeometry x="454.5" y="253" width="79" height="66" as="geometry" />
        </mxCell>
        <mxCell id="vd2-MDgw4LqcnlgiZA0H-24" value="" style="endArrow=classic;html=1;rounded=0;fontStyle=1;fontFamily=Helvetica;" parent="1" edge="1">
          <mxGeometry width="50" height="50" relative="1" as="geometry">
            <mxPoint x="397.5" y="200" as="sourcePoint" />
            <mxPoint x="449" y="270" as="targetPoint" />
          </mxGeometry>
        </mxCell>
        <mxCell id="vd2-MDgw4LqcnlgiZA0H-25" value="" style="endArrow=classic;html=1;rounded=0;fontStyle=1;exitX=0.996;exitY=0.169;exitDx=0;exitDy=0;exitPerimeter=0;fontFamily=Helvetica;" parent="1" source="vd2-MDgw4LqcnlgiZA0H-13" edge="1">
          <mxGeometry width="50" height="50" relative="1" as="geometry">
            <mxPoint x="399.5" y="308" as="sourcePoint" />
            <mxPoint x="454.5" y="291" as="targetPoint" />
          </mxGeometry>
        </mxCell>
        <mxCell id="vd2-MDgw4LqcnlgiZA0H-26" value="&lt;font&gt;Red-1&lt;/font&gt;" style="rounded=0;whiteSpace=wrap;html=1;strokeColor=#36393d;fillColor=#eeeeee;fontStyle=1;fontFamily=Helvetica;" parent="1" vertex="1">
          <mxGeometry x="454.5" y="341" width="79" height="31" as="geometry" />
        </mxCell>
        <mxCell id="vd2-MDgw4LqcnlgiZA0H-27" value="&lt;font&gt;In-1&lt;/font&gt;" style="rounded=0;whiteSpace=wrap;html=1;strokeColor=#36393d;fillColor=#eeeeee;fontStyle=1;fontFamily=Helvetica;" parent="1" vertex="1">
          <mxGeometry x="454.5" y="390" width="79" height="31" as="geometry" />
        </mxCell>
        <mxCell id="vd2-MDgw4LqcnlgiZA0H-28" value="&lt;font&gt;Color-1&lt;/font&gt;" style="rounded=0;whiteSpace=wrap;html=1;strokeColor=#36393d;fillColor=#eeeeee;fontStyle=1;fontFamily=Helvetica;" parent="1" vertex="1">
          <mxGeometry x="454.5" y="435" width="79" height="31" as="geometry" />
        </mxCell>
        <mxCell id="vd2-MDgw4LqcnlgiZA0H-29" value="" style="endArrow=classic;html=1;rounded=0;fontStyle=1;fontFamily=Helvetica;" parent="1" edge="1">
          <mxGeometry width="50" height="50" relative="1" as="geometry">
            <mxPoint x="396" y="339" as="sourcePoint" />
            <mxPoint x="453.5" y="351" as="targetPoint" />
          </mxGeometry>
        </mxCell>
        <mxCell id="vd2-MDgw4LqcnlgiZA0H-30" value="" style="endArrow=classic;html=1;rounded=0;fontStyle=1;fontFamily=Helvetica;" parent="1" edge="1">
          <mxGeometry width="50" height="50" relative="1" as="geometry">
            <mxPoint x="397.5" y="394" as="sourcePoint" />
            <mxPoint x="455" y="406" as="targetPoint" />
          </mxGeometry>
        </mxCell>
        <mxCell id="vd2-MDgw4LqcnlgiZA0H-32" value="" style="endArrow=classic;html=1;rounded=0;fontStyle=1;fontFamily=Helvetica;" parent="1" edge="1">
          <mxGeometry width="50" height="50" relative="1" as="geometry">
            <mxPoint x="397.5" y="436" as="sourcePoint" />
            <mxPoint x="455" y="448" as="targetPoint" />
          </mxGeometry>
        </mxCell>
        <mxCell id="vd2-MDgw4LqcnlgiZA0H-33" value="Reduce" style="text;html=1;align=center;verticalAlign=middle;whiteSpace=wrap;rounded=0;fontFamily=Helvetica;fontStyle=1;fontSize=16;" parent="1" vertex="1">
          <mxGeometry x="583" y="25" width="88" height="30" as="geometry" />
        </mxCell>
        <mxCell id="vd2-MDgw4LqcnlgiZA0H-34" value="&lt;font&gt;This-1&lt;/font&gt;" style="rounded=0;whiteSpace=wrap;html=1;strokeColor=#36393d;fillColor=#f9f7ed;fontStyle=1;fontFamily=Helvetica;" parent="1" vertex="1">
          <mxGeometry x="587.5" y="56" width="79" height="31" as="geometry" />
        </mxCell>
        <mxCell id="vd2-MDgw4LqcnlgiZA0H-35" value="&lt;font&gt;Is-2&lt;/font&gt;" style="rounded=0;whiteSpace=wrap;html=1;strokeColor=#36393d;fillColor=#f9f7ed;fontStyle=1;fontFamily=Helvetica;" parent="1" vertex="1">
          <mxGeometry x="587.5" y="127.5" width="79" height="31" as="geometry" />
        </mxCell>
        <mxCell id="vd2-MDgw4LqcnlgiZA0H-36" value="" style="endArrow=classic;html=1;rounded=0;fontStyle=1;fontFamily=Helvetica;entryX=0;entryY=0.5;entryDx=0;entryDy=0;" parent="1" target="vd2-MDgw4LqcnlgiZA0H-34" edge="1">
          <mxGeometry width="50" height="50" relative="1" as="geometry">
            <mxPoint x="535" y="72" as="sourcePoint" />
            <mxPoint x="585" y="70" as="targetPoint" />
          </mxGeometry>
        </mxCell>
        <mxCell id="vd2-MDgw4LqcnlgiZA0H-37" value="" style="endArrow=classic;html=1;rounded=0;fontStyle=1;fontFamily=Helvetica;exitX=1;exitY=0.5;exitDx=0;exitDy=0;entryX=0;entryY=0.5;entryDx=0;entryDy=0;" parent="1" source="vd2-MDgw4LqcnlgiZA0H-19" target="vd2-MDgw4LqcnlgiZA0H-35" edge="1">
          <mxGeometry width="50" height="50" relative="1" as="geometry">
            <mxPoint x="531" y="142" as="sourcePoint" />
            <mxPoint x="585.5" y="140" as="targetPoint" />
          </mxGeometry>
        </mxCell>
        <mxCell id="vd2-MDgw4LqcnlgiZA0H-38" value="&lt;font&gt;An-1&lt;/font&gt;" style="rounded=0;whiteSpace=wrap;html=1;strokeColor=#36393d;fillColor=#f9f7ed;fontStyle=1;fontFamily=Helvetica;" parent="1" vertex="1">
          <mxGeometry x="587.5" y="197" width="79" height="31" as="geometry" />
        </mxCell>
        <mxCell id="vd2-MDgw4LqcnlgiZA0H-39" value="" style="endArrow=classic;html=1;rounded=0;fontStyle=1;fontFamily=Helvetica;exitX=1;exitY=0.5;exitDx=0;exitDy=0;entryX=0;entryY=0.5;entryDx=0;entryDy=0;" parent="1" source="vd2-MDgw4LqcnlgiZA0H-20" target="vd2-MDgw4LqcnlgiZA0H-38" edge="1">
          <mxGeometry width="50" height="50" relative="1" as="geometry">
            <mxPoint x="535.5" y="213.5" as="sourcePoint" />
            <mxPoint x="585.5" y="211.5" as="targetPoint" />
          </mxGeometry>
        </mxCell>
        <mxCell id="vd2-MDgw4LqcnlgiZA0H-40" value="&lt;font&gt;Apple-2&lt;/font&gt;" style="rounded=0;whiteSpace=wrap;html=1;strokeColor=#36393d;fillColor=#f9f7ed;fontStyle=1;fontFamily=Helvetica;" parent="1" vertex="1">
          <mxGeometry x="590" y="270.5" width="79" height="31" as="geometry" />
        </mxCell>
        <mxCell id="vd2-MDgw4LqcnlgiZA0H-41" value="" style="endArrow=classic;html=1;rounded=0;fontStyle=1;fontFamily=Helvetica;exitX=1;exitY=0.5;exitDx=0;exitDy=0;entryX=0;entryY=0.5;entryDx=0;entryDy=0;" parent="1" source="vd2-MDgw4LqcnlgiZA0H-23" target="vd2-MDgw4LqcnlgiZA0H-40" edge="1">
          <mxGeometry width="50" height="50" relative="1" as="geometry">
            <mxPoint x="537.5" y="287" as="sourcePoint" />
            <mxPoint x="587.5" y="285" as="targetPoint" />
          </mxGeometry>
        </mxCell>
        <mxCell id="vd2-MDgw4LqcnlgiZA0H-42" value="&lt;font&gt;Red-1&lt;/font&gt;" style="rounded=0;whiteSpace=wrap;html=1;strokeColor=#36393d;fillColor=#f9f7ed;fontStyle=1;fontFamily=Helvetica;" parent="1" vertex="1">
          <mxGeometry x="590" y="341" width="79" height="31" as="geometry" />
        </mxCell>
        <mxCell id="vd2-MDgw4LqcnlgiZA0H-43" value="&lt;font&gt;In-1&lt;/font&gt;" style="rounded=0;whiteSpace=wrap;html=1;strokeColor=#36393d;fillColor=#f9f7ed;fontStyle=1;fontFamily=Helvetica;" parent="1" vertex="1">
          <mxGeometry x="590" y="390" width="79" height="31" as="geometry" />
        </mxCell>
        <mxCell id="vd2-MDgw4LqcnlgiZA0H-44" value="&lt;font&gt;Color-1&lt;/font&gt;" style="rounded=0;whiteSpace=wrap;html=1;strokeColor=#36393d;fillColor=#f9f7ed;fontStyle=1;fontFamily=Helvetica;" parent="1" vertex="1">
          <mxGeometry x="590" y="435" width="79" height="31" as="geometry" />
        </mxCell>
        <mxCell id="vd2-MDgw4LqcnlgiZA0H-45" value="" style="endArrow=classic;html=1;rounded=0;fontStyle=1;fontFamily=Helvetica;exitX=1;exitY=0.5;exitDx=0;exitDy=0;entryX=0;entryY=0.5;entryDx=0;entryDy=0;" parent="1" source="vd2-MDgw4LqcnlgiZA0H-26" target="vd2-MDgw4LqcnlgiZA0H-42" edge="1">
          <mxGeometry width="50" height="50" relative="1" as="geometry">
            <mxPoint x="538" y="354" as="sourcePoint" />
            <mxPoint x="588" y="354" as="targetPoint" />
          </mxGeometry>
        </mxCell>
        <mxCell id="vd2-MDgw4LqcnlgiZA0H-46" value="" style="endArrow=classic;html=1;rounded=0;fontStyle=1;fontFamily=Helvetica;exitX=1;exitY=0.5;exitDx=0;exitDy=0;entryX=0;entryY=0.5;entryDx=0;entryDy=0;" parent="1" source="vd2-MDgw4LqcnlgiZA0H-27" target="vd2-MDgw4LqcnlgiZA0H-43" edge="1">
          <mxGeometry width="50" height="50" relative="1" as="geometry">
            <mxPoint x="537.5" y="406.5" as="sourcePoint" />
            <mxPoint x="587" y="407" as="targetPoint" />
          </mxGeometry>
        </mxCell>
        <mxCell id="vd2-MDgw4LqcnlgiZA0H-47" value="" style="endArrow=classic;html=1;rounded=0;fontStyle=1;fontFamily=Helvetica;exitX=1;exitY=0.5;exitDx=0;exitDy=0;entryX=0;entryY=0.5;entryDx=0;entryDy=0;" parent="1" source="vd2-MDgw4LqcnlgiZA0H-28" target="vd2-MDgw4LqcnlgiZA0H-44" edge="1">
          <mxGeometry width="50" height="50" relative="1" as="geometry">
            <mxPoint x="538" y="451.5" as="sourcePoint" />
            <mxPoint x="588" y="452" as="targetPoint" />
          </mxGeometry>
        </mxCell>
        <mxCell id="vd2-MDgw4LqcnlgiZA0H-48" value="&lt;span style=&quot;&quot;&gt;This-1&lt;/span&gt;&lt;div&gt;&lt;span style=&quot;&quot;&gt;&lt;br&gt;&lt;/span&gt;&lt;/div&gt;&lt;div&gt;&lt;span style=&quot;&quot;&gt;Is-2&lt;/span&gt;&lt;span style=&quot;&quot;&gt;&lt;br&gt;&lt;/span&gt;&lt;/div&gt;&lt;div&gt;&lt;span style=&quot;&quot;&gt;&lt;br&gt;&lt;/span&gt;&lt;/div&gt;&lt;div&gt;&lt;span style=&quot;&quot;&gt;An-1&lt;/span&gt;&lt;span style=&quot;&quot;&gt;&lt;br&gt;&lt;/span&gt;&lt;/div&gt;&lt;div&gt;&lt;span style=&quot;&quot;&gt;&lt;br&gt;&lt;/span&gt;&lt;/div&gt;&lt;div&gt;&lt;span style=&quot;&quot;&gt;Apple-2&lt;/span&gt;&lt;span style=&quot;&quot;&gt;&lt;br&gt;&lt;/span&gt;&lt;/div&gt;&lt;div&gt;&lt;span style=&quot;&quot;&gt;&lt;br&gt;&lt;/span&gt;&lt;/div&gt;&lt;div&gt;&lt;span style=&quot;&quot;&gt;Red-1&lt;/span&gt;&lt;span style=&quot;&quot;&gt;&lt;br&gt;&lt;/span&gt;&lt;/div&gt;&lt;div&gt;&lt;span style=&quot;&quot;&gt;&lt;br&gt;&lt;/span&gt;&lt;/div&gt;&lt;div&gt;&lt;span style=&quot;&quot;&gt;In-1&lt;/span&gt;&lt;span style=&quot;&quot;&gt;&lt;br&gt;&lt;/span&gt;&lt;/div&gt;&lt;div&gt;&lt;span style=&quot;&quot;&gt;&lt;br&gt;&lt;/span&gt;&lt;/div&gt;&lt;div&gt;&lt;span style=&quot;&quot;&gt;Color-1&lt;/span&gt;&lt;span style=&quot;&quot;&gt;&lt;br&gt;&lt;/span&gt;&lt;/div&gt;" style="rounded=0;whiteSpace=wrap;html=1;fillColor=none;fontStyle=1;fontFamily=Helvetica;" parent="1" vertex="1">
          <mxGeometry x="728" y="133" width="80" height="278" as="geometry" />
        </mxCell>
        <mxCell id="vd2-MDgw4LqcnlgiZA0H-49" value="Output" style="text;html=1;align=center;verticalAlign=middle;whiteSpace=wrap;rounded=0;fontFamily=Helvetica;fontStyle=1;fontSize=16;" parent="1" vertex="1">
          <mxGeometry x="724" y="103" width="88" height="30" as="geometry" />
        </mxCell>
        <mxCell id="vd2-MDgw4LqcnlgiZA0H-50" value="" style="endArrow=classic;html=1;rounded=0;fontStyle=1;fontFamily=Helvetica;exitX=1;exitY=0.5;exitDx=0;exitDy=0;entryX=0.007;entryY=0.061;entryDx=0;entryDy=0;entryPerimeter=0;" parent="1" source="vd2-MDgw4LqcnlgiZA0H-34" target="vd2-MDgw4LqcnlgiZA0H-48" edge="1">
          <mxGeometry width="50" height="50" relative="1" as="geometry">
            <mxPoint x="671" y="69" as="sourcePoint" />
            <mxPoint x="725" y="146" as="targetPoint" />
          </mxGeometry>
        </mxCell>
        <mxCell id="vd2-MDgw4LqcnlgiZA0H-51" value="" style="endArrow=classic;html=1;rounded=0;fontStyle=1;fontFamily=Helvetica;exitX=1;exitY=0.5;exitDx=0;exitDy=0;entryX=0;entryY=0.25;entryDx=0;entryDy=0;" parent="1" source="vd2-MDgw4LqcnlgiZA0H-35" target="vd2-MDgw4LqcnlgiZA0H-48" edge="1">
          <mxGeometry width="50" height="50" relative="1" as="geometry">
            <mxPoint x="669" y="138" as="sourcePoint" />
            <mxPoint x="723" y="215" as="targetPoint" />
          </mxGeometry>
        </mxCell>
        <mxCell id="vd2-MDgw4LqcnlgiZA0H-52" value="" style="endArrow=classic;html=1;rounded=0;fontStyle=1;fontFamily=Helvetica;exitX=1;exitY=0.5;exitDx=0;exitDy=0;entryX=-0.006;entryY=0.368;entryDx=0;entryDy=0;entryPerimeter=0;" parent="1" source="vd2-MDgw4LqcnlgiZA0H-38" target="vd2-MDgw4LqcnlgiZA0H-48" edge="1">
          <mxGeometry width="50" height="50" relative="1" as="geometry">
            <mxPoint x="668.5" y="216" as="sourcePoint" />
            <mxPoint x="726" y="228" as="targetPoint" />
          </mxGeometry>
        </mxCell>
        <mxCell id="vd2-MDgw4LqcnlgiZA0H-54" value="" style="endArrow=classic;html=1;rounded=0;fontStyle=1;fontFamily=Helvetica;entryX=0.014;entryY=0.538;entryDx=0;entryDy=0;entryPerimeter=0;exitX=1;exitY=0.5;exitDx=0;exitDy=0;" parent="1" source="vd2-MDgw4LqcnlgiZA0H-40" target="vd2-MDgw4LqcnlgiZA0H-48" edge="1">
          <mxGeometry width="50" height="50" relative="1" as="geometry">
            <mxPoint x="669" y="284" as="sourcePoint" />
            <mxPoint x="723" y="284" as="targetPoint" />
          </mxGeometry>
        </mxCell>
        <mxCell id="vd2-MDgw4LqcnlgiZA0H-55" value="" style="endArrow=classic;html=1;rounded=0;fontStyle=1;fontFamily=Helvetica;exitX=1;exitY=0.5;exitDx=0;exitDy=0;entryX=0.027;entryY=0.65;entryDx=0;entryDy=0;entryPerimeter=0;" parent="1" source="vd2-MDgw4LqcnlgiZA0H-42" target="vd2-MDgw4LqcnlgiZA0H-48" edge="1">
          <mxGeometry width="50" height="50" relative="1" as="geometry">
            <mxPoint x="671" y="345" as="sourcePoint" />
            <mxPoint x="723" y="318" as="targetPoint" />
          </mxGeometry>
        </mxCell>
        <mxCell id="vd2-MDgw4LqcnlgiZA0H-56" value="" style="endArrow=classic;html=1;rounded=0;fontStyle=1;fontFamily=Helvetica;entryX=-0.019;entryY=0.796;entryDx=0;entryDy=0;entryPerimeter=0;" parent="1" target="vd2-MDgw4LqcnlgiZA0H-48" edge="1">
          <mxGeometry width="50" height="50" relative="1" as="geometry">
            <mxPoint x="669" y="407" as="sourcePoint" />
            <mxPoint x="723" y="365" as="targetPoint" />
          </mxGeometry>
        </mxCell>
        <mxCell id="vd2-MDgw4LqcnlgiZA0H-57" value="" style="endArrow=classic;html=1;rounded=0;fontStyle=1;fontFamily=Helvetica;exitX=1;exitY=0.5;exitDx=0;exitDy=0;entryX=0.007;entryY=0.886;entryDx=0;entryDy=0;entryPerimeter=0;" parent="1" source="vd2-MDgw4LqcnlgiZA0H-44" target="vd2-MDgw4LqcnlgiZA0H-48" edge="1">
          <mxGeometry width="50" height="50" relative="1" as="geometry">
            <mxPoint x="671" y="444" as="sourcePoint" />
            <mxPoint x="723" y="386" as="targetPoint" />
          </mxGeometry>
        </mxCell>
      </root>
    </mxGraphModel>
  </diagram>
</mxfile>
